<svg xmlns="http://www.w3.org/2000/svg" xmlns:xlink="http://www.w3.org/1999/xlink" width="500" zoomAndPan="magnify" viewBox="0 0 375 374.999991" height="500" preserveAspectRatio="xMidYMid meet" version="1.0"><defs><g/></defs><g fill="#666666" fill-opacity="1"><g transform="translate(84.185791, 280.427085)"><g><path d="M 110.390625 2.8125 C 91.210938 2.8125 74.066406 -1.820312 58.953125 -11.09375 C 43.835938 -20.375 32.054688 -33.351562 23.609375 -50.03125 C 15.160156 -66.707031 10.9375 -85.785156 10.9375 -107.265625 C 10.9375 -130.191406 15.785156 -149.679688 25.484375 -165.734375 C 35.179688 -181.796875 48.003906 -193.890625 63.953125 -202.015625 C 79.898438 -210.148438 97.046875 -214.21875 115.390625 -214.21875 C 128.109375 -214.21875 139.882812 -212.910156 150.71875 -210.296875 C 161.5625 -207.691406 172.925781 -203.578125 184.8125 -197.953125 C 182.519531 -187.109375 181.375 -170.953125 181.375 -149.484375 C 176.789062 -147.609375 171.265625 -146.671875 164.796875 -146.671875 C 163.960938 -167.515625 159.6875 -181.84375 151.96875 -189.65625 C 144.257812 -197.476562 132.898438 -201.390625 117.890625 -201.390625 C 101.003906 -201.390625 87.035156 -197.425781 75.984375 -189.5 C 64.941406 -181.582031 56.8125 -171.160156 51.59375 -158.234375 C 46.382812 -145.304688 43.78125 -131.128906 43.78125 -115.703125 C 43.78125 -96.941406 46.957031 -80.003906 53.3125 -64.890625 C 59.675781 -49.773438 68.898438 -37.890625 80.984375 -29.234375 C 93.078125 -20.585938 107.257812 -16.265625 123.53125 -16.265625 C 133.320312 -16.265625 143.429688 -17.929688 153.859375 -21.265625 C 164.285156 -24.597656 173.976562 -29.082031 182.9375 -34.71875 C 184.1875 -33.664062 185.382812 -32.148438 186.53125 -30.171875 C 187.675781 -28.191406 188.351562 -26.472656 188.5625 -25.015625 C 175.851562 -15.210938 163.503906 -8.125 151.515625 -3.75 C 139.523438 0.625 125.816406 2.8125 110.390625 2.8125 Z M 110.390625 2.8125 "/></g></g></g><g fill="#666666" fill-opacity="1"><g transform="translate(124.483552, 268.100395)"><g><path d="M 80.40625 -46.96875 C 80.40625 -21.414062 78.710938 -0.75 75.328125 15.03125 C 71.953125 30.8125 65.066406 44.960938 54.671875 57.484375 C 44.273438 70.015625 28.554688 82.039062 7.515625 93.5625 C 4.003906 91.550781 1.875 88.289062 1.125 83.78125 C 16.15625 71.007812 27.238281 57.421875 34.375 43.015625 C 41.519531 28.617188 45.09375 10.019531 45.09375 -12.78125 L 45.09375 -206.28125 C 45.09375 -218.800781 43.273438 -227.253906 39.640625 -231.640625 C 36.003906 -236.023438 29.175781 -238.46875 19.15625 -238.96875 C 17.90625 -242.476562 17.28125 -247.863281 17.28125 -255.125 C 28.300781 -254.375 43.457031 -254 62.75 -254 C 84.039062 -254 99.195312 -254.375 108.21875 -255.125 C 108.21875 -247.863281 107.585938 -242.476562 106.328125 -238.96875 C 96.554688 -238.46875 89.789062 -235.960938 86.03125 -231.453125 C 82.28125 -226.941406 80.40625 -218.550781 80.40625 -206.28125 Z M 80.40625 -46.96875 "/></g></g></g></svg>