<svg xmlns="http://www.w3.org/2000/svg" xmlns:xlink="http://www.w3.org/1999/xlink" width="500" zoomAndPan="magnify" viewBox="0 0 375 374.999991" height="500" preserveAspectRatio="xMidYMid meet" version="1.0"><defs><g/></defs><path stroke-linecap="butt" transform="matrix(0.75, 0, 0, 0.75, 101.762715, 76.898023)" fill="none" stroke-linejoin="miter" d="M 125.77993 237.229735 C 110.644513 237.229735 97.11847 233.573485 85.191386 226.266193 C 73.26951 218.922442 63.977843 208.682858 57.311176 195.557857 C 50.644509 182.385981 47.316384 167.333897 47.316384 150.391188 C 47.316384 132.323478 51.128884 116.96931 58.753884 104.323476 C 66.42576 91.635975 76.540344 82.083891 89.108053 75.656808 C 101.712221 69.234932 115.243471 66.02139 129.696597 66.02139 C 139.733056 66.02139 149.024724 67.068265 157.576808 69.156807 C 166.128891 71.203682 175.10285 74.432849 184.493476 78.849516 C 182.686184 87.4016 181.785142 100.146393 181.785142 117.089102 C 178.170559 118.573477 173.816392 119.318269 168.717433 119.318269 C 168.035142 102.859934 164.644516 91.55785 158.540349 85.412017 C 152.477849 79.229725 143.524723 76.141183 131.680972 76.141183 C 118.352847 76.141183 107.332013 79.271391 98.623679 85.537017 C 89.910136 91.755767 83.488261 99.969309 79.352844 110.162018 C 75.259094 120.359936 73.20701 131.542228 73.20701 143.708896 C 73.20701 158.521396 75.717427 171.891189 80.738261 183.813065 C 85.753886 195.734941 93.019512 205.109941 102.535137 211.938067 C 112.09243 218.760984 123.290347 222.172442 136.139306 222.172442 C 143.84764 222.172442 151.81639 220.870359 160.045558 218.260984 C 168.274725 215.609942 175.925767 212.057858 182.988268 207.599525 C 183.993476 208.443275 184.936184 209.6464 185.821601 211.214108 C 186.743476 212.776608 187.285143 214.125567 187.446601 215.245359 C 177.410142 222.995359 167.654933 228.594318 158.180974 232.047443 C 148.743474 235.500568 137.946598 237.229735 125.77993 237.229735 Z M 125.77993 237.229735 " stroke="#ffffff" stroke-width="8.633345" stroke-opacity="1" stroke-miterlimit="4"/><g fill="#666666" fill-opacity="1"><g transform="translate(130.790056, 253.148011)"><g><path d="M 65.3125 1.671875 C 53.957031 1.671875 43.804688 -1.070312 34.859375 -6.5625 C 25.921875 -12.050781 18.953125 -19.726562 13.953125 -29.59375 C 8.960938 -39.46875 6.46875 -50.753906 6.46875 -63.453125 C 6.46875 -77.023438 9.335938 -88.554688 15.078125 -98.046875 C 20.816406 -107.546875 28.398438 -114.695312 37.828125 -119.5 C 47.265625 -124.3125 57.410156 -126.71875 68.265625 -126.71875 C 75.785156 -126.71875 82.753906 -125.945312 89.171875 -124.40625 C 95.585938 -122.863281 102.304688 -120.429688 109.328125 -117.109375 C 107.972656 -110.691406 107.296875 -101.132812 107.296875 -88.4375 C 104.585938 -87.320312 101.320312 -86.765625 97.5 -86.765625 C 97 -99.097656 94.46875 -107.578125 89.90625 -112.203125 C 85.34375 -116.828125 78.625 -119.140625 69.75 -119.140625 C 59.757812 -119.140625 51.492188 -116.796875 44.953125 -112.109375 C 38.421875 -107.421875 33.613281 -101.253906 30.53125 -93.609375 C 27.445312 -85.960938 25.90625 -77.578125 25.90625 -68.453125 C 25.90625 -57.347656 27.785156 -47.320312 31.546875 -38.375 C 35.304688 -29.4375 40.757812 -22.410156 47.90625 -17.296875 C 55.0625 -12.179688 63.453125 -9.625 73.078125 -9.625 C 78.867188 -9.625 84.847656 -10.609375 91.015625 -12.578125 C 97.179688 -14.554688 102.914062 -17.207031 108.21875 -20.53125 C 108.957031 -19.914062 109.664062 -19.019531 110.34375 -17.84375 C 111.03125 -16.675781 111.4375 -15.660156 111.5625 -14.796875 C 104.03125 -9.003906 96.71875 -4.8125 89.625 -2.21875 C 82.539062 0.375 74.4375 1.671875 65.3125 1.671875 Z M 65.3125 1.671875 "/></g></g></g><path stroke-linecap="butt" transform="matrix(0.75, 0, 0, 0.75, 110.320792, 34.35581)" fill="none" stroke-linejoin="miter" d="M 122.535826 244.952687 C 122.535826 265.119355 121.18166 281.421439 118.483743 293.864148 C 115.827493 306.312066 110.400409 317.452691 102.202492 327.296442 C 93.999366 337.181859 81.603532 346.687068 65.009781 355.801652 C 62.259781 354.21311 60.572281 351.629777 59.947281 348.062068 C 71.811865 338.025609 80.567074 327.317275 86.212907 315.937066 C 91.853533 304.551649 94.67645 289.884981 94.67645 271.942272 L 94.67645 119.270387 C 94.67645 109.431844 93.228533 102.775594 90.337908 99.301635 C 87.488949 95.827677 82.113949 93.900593 74.20249 93.515177 C 73.186865 90.765177 72.681656 86.520385 72.681656 80.775593 C 81.410824 81.358926 93.374366 81.645384 108.567076 81.645384 C 125.358743 81.645384 137.317077 81.358926 144.457703 80.775593 C 144.457703 86.520385 143.952495 90.765177 142.936869 93.515177 C 135.218119 93.900593 129.889994 95.874552 126.947285 99.447469 C 124.004577 103.015177 122.535826 109.624553 122.535826 119.270387 Z M 122.535826 244.952687 " stroke="#ffffff" stroke-width="10.37323" stroke-opacity="1" stroke-miterlimit="4"/><g fill="#666666" fill-opacity="1"><g transform="translate(154.629383, 245.855796)"><g><path d="M 47.5625 -27.78125 C 47.5625 -12.664062 46.5625 -0.441406 44.5625 8.890625 C 42.5625 18.222656 38.488281 26.59375 32.34375 34 C 26.195312 41.414062 16.898438 48.53125 4.453125 55.34375 C 2.367188 54.15625 1.109375 52.226562 0.671875 49.5625 C 9.554688 42.007812 16.109375 33.972656 20.328125 25.453125 C 24.554688 16.929688 26.671875 5.925781 26.671875 -7.5625 L 26.671875 -122.03125 C 26.671875 -129.4375 25.597656 -134.4375 23.453125 -137.03125 C 21.304688 -139.625 17.269531 -141.070312 11.34375 -141.375 C 10.59375 -143.445312 10.21875 -146.628906 10.21875 -150.921875 C 16.738281 -150.484375 25.707031 -150.265625 37.125 -150.265625 C 49.71875 -150.265625 58.679688 -150.484375 64.015625 -150.921875 C 64.015625 -146.628906 63.644531 -143.445312 62.90625 -141.375 C 57.125 -141.070312 53.117188 -139.585938 50.890625 -136.921875 C 48.671875 -134.253906 47.5625 -129.289062 47.5625 -122.03125 Z M 47.5625 -27.78125 "/></g></g></g></svg>